<svg width="12" height="9" viewBox="0 0 12 9" fill="none" xmlns="http://www.w3.org/2000/svg">
<path d="M6.59375 8.26571C6.38542 8.40113 6.17438 8.40884 5.96063 8.28884C5.74729 8.16926 5.64062 7.98446 5.64062 7.73446V5.12509L0.640625 5.12509C0.463542 5.12509 0.315208 5.06509 0.195625 4.94509C0.0756251 4.8255 0.015625 4.67717 0.015625 4.50009C0.015625 4.323 0.0756251 4.17446 0.195625 4.05446C0.315208 3.93488 0.463542 3.87509 0.640625 3.87509L5.64062 3.87509L5.64062 1.26571C5.64062 1.01571 5.74729 0.830713 5.96063 0.710713C6.17438 0.59113 6.38542 0.599047 6.59375 0.734463L11.6875 3.96884C11.8854 4.09384 11.9844 4.27092 11.9844 4.50009C11.9844 4.72925 11.8854 4.90634 11.6875 5.03134L6.59375 8.26571Z" fill="#441816"/>
</svg>
