<svg width="12" height="8" viewBox="0 0 12 8" fill="none" xmlns="http://www.w3.org/2000/svg">
<path d="M5.62499 7.27504C5.49165 7.27504 5.36265 7.25004 5.23799 7.20004C5.11265 7.15004 5.00832 7.08337 4.92499 7.00004L0.324987 2.40004C0.141654 2.2167 0.0499878 1.98337 0.0499878 1.70004C0.0499878 1.4167 0.141654 1.18337 0.324987 1.00004C0.508321 0.816703 0.741654 0.725037 1.02499 0.725037C1.30832 0.725037 1.54165 0.816703 1.72499 1.00004L5.62499 4.90004L9.52499 1.00004C9.70832 0.816703 9.94165 0.725037 10.225 0.725037C10.5083 0.725037 10.7417 0.816703 10.925 1.00004C11.1083 1.18337 11.2 1.4167 11.2 1.70004C11.2 1.98337 11.1083 2.2167 10.925 2.40004L6.32499 7.00004C6.22499 7.10004 6.11665 7.1707 5.99999 7.21204C5.88332 7.25404 5.75832 7.27504 5.62499 7.27504Z" fill="#FFFCFC"/>
</svg>
