<svg width="71" height="140" viewBox="0 0 71 140" fill="none" xmlns="http://www.w3.org/2000/svg">
<g clip-path="url(#clip0_787_386)">
<path d="M55.7521 132.69C55.3601 131.246 55.0335 130.13 54.7721 129.002C54.4847 127.702 54.8244 126.547 56.0787 125.97C57.4245 125.366 58.3653 126.14 59.0578 127.243C59.6196 128.122 60.1161 129.054 61.0046 130.59C61.5403 128.411 61.8669 126.928 62.272 125.471C62.4941 124.67 62.7554 123.857 63.1212 123.109C63.7745 121.809 64.7806 120.982 66.3093 121.612C67.6812 122.177 67.7335 123.371 67.5114 124.644C66.8711 128.411 66.244 132.191 65.643 135.971C65.055 139.698 63.5524 140.604 59.9462 139.633C55.8043 138.504 51.6233 137.546 47.4552 136.509C46.7628 136.338 46.0311 136.259 45.3647 136.036C43.9013 135.525 43.3003 134.409 43.64 132.926C43.9536 131.561 45.0511 130.918 46.3316 131.062C48.4613 131.298 50.5649 131.784 52.6816 132.165C53.5831 132.322 54.4978 132.48 55.7521 132.703L55.7521 132.69Z" fill="#88413E"/>
<path d="M11.0276 105.22C10.6226 105.049 9.65568 104.931 9.17224 104.393C7.19929 102.175 5.31781 99.865 3.50165 97.5026C2.62623 96.3607 2.49557 95.0351 3.7107 93.9721C4.74291 93.0533 6.12789 93.4471 7.35608 94.917C9.11998 97.017 10.9623 99.0513 12.5955 101.256C13.889 103.002 13.2096 104.892 11.0145 105.233L11.0276 105.22Z" fill="#88413E"/>
<path d="M36.3885 50.4378C37.7997 50.3197 39.263 49.9391 40.6219 50.1622C41.4712 50.2934 42.5818 51.1859 42.8561 51.9865C43.2873 53.2465 42.425 54.3489 41.0792 54.5852C38.6228 55.0052 36.1533 55.3726 33.6708 55.5039C32.2858 55.5695 31.0577 54.782 31.0054 53.194C30.9531 51.5665 32.0899 50.9628 33.5402 50.8053C34.4809 50.7003 35.4217 50.5297 36.3624 50.3984C36.3624 50.4115 36.3624 50.4378 36.3624 50.4509L36.3885 50.4378Z" fill="#88413E"/>
<path d="M49.6242 52.5509C47.3116 52.8265 45.8221 52.0915 45.5869 50.8053C45.2994 49.1778 46.3316 48.4691 47.6905 47.9835C49.4805 47.3535 51.2444 46.6579 53.0214 45.9754C54.4064 45.4505 55.6737 45.5423 56.3532 46.9992C57.0457 48.4954 56.2225 49.5978 54.9551 50.2278C53.0475 51.1728 51.0484 51.934 49.6112 52.5377L49.6242 52.5509Z" fill="#88413E"/>
<path d="M42.3335 115.313C42.5556 116.835 41.4973 118.148 39.9294 117.99C37.4599 117.754 34.9774 117.294 32.5863 116.625C31.9331 116.441 31.123 115.208 31.1752 114.512C31.2275 113.79 32.1682 112.583 32.8085 112.517C35.9181 112.202 38.9625 112.688 41.6933 114.355C42.046 114.578 42.2159 115.116 42.3335 115.313Z" fill="#88413E"/>
<path d="M25.0082 55.1626C24.7338 55.5564 24.3679 56.4751 23.6885 56.9738C22.1467 58.0894 20.4743 59.0344 18.8149 59.9531C17.5998 60.6225 16.2932 60.9375 15.3002 59.5725C14.2941 58.1944 14.9344 56.9476 16.0711 56.1601C17.8219 54.9395 19.6773 53.7977 21.6241 52.9577C23.2573 52.249 24.7077 53.1546 25.0343 55.1626L25.0082 55.1626Z" fill="#88413E"/>
<path d="M16.2671 110.995C15.9274 109.393 17.1555 107.976 18.7757 108.488C21.1537 109.236 23.4402 110.325 25.6614 111.48C26.171 111.743 26.563 112.976 26.4062 113.62C26.2494 114.276 25.4524 115.024 24.7599 115.273C23.0091 115.916 17.3515 113.344 16.5023 111.677C16.3977 111.467 16.3455 111.231 16.2671 110.995Z" fill="#88413E"/>
<path d="M46.7628 119.749C46.606 118.161 48.1478 116.691 49.4936 117.531C51.6756 118.883 53.74 120.602 55.4516 122.518C56.5622 123.765 55.1772 125.786 53.4917 125.747C51.95 125.707 46.9065 121.219 46.7628 119.762L46.7628 119.749Z" fill="#88413E"/>
<path d="M65.3687 32.1946C66.7929 31.9321 67.8643 32.9165 67.8643 34.4783C67.8643 36.4076 64.5325 40.7781 62.6118 41.3556C60.7956 41.9068 59.0448 40.5419 59.8679 38.9538C61.1223 36.5782 63.0429 34.557 64.7023 32.4177C64.8199 32.2602 65.1466 32.2602 65.3687 32.1946Z" fill="#88413E"/>
<path d="M7.14702 71.6209C5.40926 71.739 4.35092 70.7022 4.5861 69.0747C5.00421 66.2661 6.24547 63.7855 8.532 62.0662C9.09383 61.6462 10.518 61.7118 11.0929 62.1581C11.6547 62.578 12.0598 63.943 11.7854 64.5861C10.9231 66.6729 9.77326 68.6416 8.59733 70.584C8.27069 71.1222 7.48673 71.3846 7.14702 71.6078L7.14702 71.6209Z" fill="#88413E"/>
<path d="M67.3024 7.24477C66.6621 8.18974 66.2571 9.42346 65.4209 9.90907C64.2188 10.5915 63.1344 9.76469 62.5725 8.55723C61.7624 6.82479 60.8478 5.11859 60.3513 3.29427C60.1292 2.48055 60.5212 1.10247 61.1353 0.51186C62.1936 -0.485609 63.5133 0.144371 64.1796 1.22059C65.2902 3.03178 66.1526 5.00047 67.3024 7.2579L67.3024 7.24477Z" fill="#88413E"/>
<path d="M68.3476 26.5117C66.7667 26.5379 65.7214 25.8423 65.7606 24.4774C65.8259 22.2331 66.1003 19.9756 66.5446 17.7707C66.6621 17.1801 67.6682 16.4451 68.3346 16.3664C68.9879 16.2876 69.9417 16.7995 70.3729 17.3638C71.6011 18.9913 70.8955 24.4511 69.406 25.8292C69.0663 26.1442 68.6351 26.3279 68.3476 26.5117Z" fill="#88413E"/>
<path d="M4.40951e-05 83.4461C0.0915053 82.5799 0.104574 81.0181 0.43122 79.535C0.71867 78.2488 1.80314 77.3432 3.08359 77.8551C3.85448 78.1701 4.63843 79.2725 4.79523 80.1388C5.05654 81.635 4.89975 83.223 4.79522 84.7586C4.70376 86.1761 4.14193 87.3704 2.49563 87.4229C0.783997 87.4754 0.352822 86.2417 0.182965 84.8374C0.156834 84.6011 0.117639 84.3649 -0.0130198 83.4461L4.40951e-05 83.4461Z" fill="#88413E"/>
</g>
<defs>
<clipPath id="clip0_787_386">
<rect width="140" height="71" fill="white" transform="translate(71) rotate(90)"/>
</clipPath>
</defs>
</svg>
