<svg width="155" height="105" viewBox="0 0 155 105" fill="none" xmlns="http://www.w3.org/2000/svg">
<g clip-path="url(#clip0_812_408)">
<path d="M143.098 49.0709C141.602 49.0759 140.44 49.1027 139.282 49.063C137.953 49.0043 136.925 48.3773 136.692 47.0162C136.457 45.56 137.448 44.8517 138.692 44.4682C139.687 44.1531 140.716 43.9147 142.429 43.4539C140.463 42.3726 139.115 41.6732 137.813 40.9049C137.097 40.4832 136.379 40.0201 135.751 39.4731C134.665 38.5058 134.127 37.32 135.131 36.0065C136.031 34.8273 137.198 35.086 138.37 35.63C141.843 37.2234 145.332 38.8074 148.827 40.3663C152.276 41.899 152.761 43.5847 150.89 46.8167C148.728 50.5253 146.72 54.3159 144.64 58.0736C144.296 58.6983 144.03 59.3847 143.642 59.9706C142.769 61.2516 141.536 61.5434 140.191 60.8314C138.954 60.1753 138.617 58.9487 139.088 57.7492C139.867 55.7532 140.881 53.847 141.796 51.9009C142.182 51.0708 142.571 50.2282 143.111 49.0743L143.098 49.0709Z" fill="#88413E"/>
<path d="M104.989 85.1618C104.719 85.5089 104.355 86.4122 103.71 86.7399C101.057 88.0715 98.3386 89.2911 95.5866 90.4339C94.2571 90.984 92.9428 90.7671 92.2305 89.3182C91.6102 88.0834 92.349 86.8475 94.0867 86.0416C96.5716 84.8813 99.0135 83.6283 101.566 82.6214C103.587 81.8238 105.237 82.9692 104.998 85.1778L104.989 85.1618Z" fill="#88413E"/>
<path d="M58.6372 46.4864C58.8883 45.0928 58.8995 43.5808 59.4667 42.326C59.8133 41.5396 60.9628 40.6979 61.8071 40.64C63.1357 40.5497 63.9774 41.668 63.8573 43.029C63.6272 45.5104 63.343 47.9908 62.8273 50.4227C62.5322 51.7775 61.4537 52.76 59.9062 52.3995C58.3207 52.0288 58.0317 50.7745 58.255 49.3329C58.397 48.397 58.4757 47.4441 58.5924 46.5015C58.6051 46.5049 58.6305 46.5117 58.6431 46.5151L58.6372 46.4864Z" fill="#88413E"/>
<path d="M64.1039 34.2486C63.7716 36.5538 62.6762 37.8023 61.3729 37.6966C59.7265 37.553 59.3091 36.3725 59.1917 34.9343C59.0465 33.0422 58.8311 31.1584 58.6318 29.2653C58.4832 27.7917 58.9 26.5912 60.483 26.312C62.1074 26.0304 62.9593 27.1108 63.2398 28.4981C63.6588 30.5853 63.8767 32.7132 64.0879 34.2578L64.1039 34.2486Z" fill="#88413E"/>
<path d="M122.84 57.5348C124.368 57.7143 125.362 59.0763 124.804 60.55C123.937 62.8742 122.851 65.1532 121.585 67.2895C121.239 67.873 119.837 68.3362 119.179 68.1057C118.495 67.8684 117.572 66.6472 117.675 66.0118C118.175 62.9265 119.432 60.1116 121.749 57.9053C122.056 57.6223 122.62 57.5975 122.84 57.5348Z" fill="#88413E"/>
<path d="M60.2556 58.7019C60.5649 59.0688 61.3576 59.66 61.6635 60.4453C62.3421 62.2233 62.822 64.0833 63.2799 65.9239C63.612 67.2709 63.5781 68.6145 62.0026 69.2204C60.4111 69.8355 59.3724 68.8944 58.906 67.5926C58.1802 65.5855 57.5574 63.4978 57.25 61.3999C56.9881 59.6389 58.2382 58.4724 60.2624 58.6766L60.2556 58.7019Z" fill="#88413E"/>
<path d="M111.923 81.5955C110.288 81.5093 109.237 79.9561 110.151 78.5236C111.489 76.4202 113.133 74.4936 114.823 72.647C115.209 72.2227 116.502 72.1634 117.083 72.4813C117.676 72.8026 118.192 73.7661 118.254 74.4995C118.422 76.3571 114.473 81.1561 112.643 81.545C112.413 81.5916 112.171 81.581 111.923 81.5955Z" fill="#88413E"/>
<path d="M128.272 54.4047C126.697 54.1451 125.676 52.2754 126.836 51.1929C128.706 49.4351 130.901 47.886 133.195 46.7287C134.687 45.9786 136.281 47.8395 135.807 49.4574C135.37 50.9365 129.729 54.6463 128.284 54.4081L128.272 54.4047Z" fill="#88413E"/>
<path d="M48.5163 13.7721C48.6313 12.3285 49.8594 11.5484 51.3681 11.9526C53.2316 12.4519 56.5909 16.8014 56.6516 18.8061C56.714 20.703 54.9424 22.0409 53.6214 20.8348C51.6515 19.0084 50.1963 16.63 48.5593 14.4735C48.4376 14.3191 48.5222 14.0036 48.5163 13.7721Z" fill="#88413E"/>
<path d="M71.5303 80.2141C71.1946 81.9232 69.9192 82.6771 68.408 82.0287C65.8033 80.8979 63.7285 79.0569 62.6596 76.4033C62.3993 75.7519 62.8313 74.3933 63.4112 73.9535C63.9622 73.5195 65.3855 73.4815 65.9357 73.913C67.7282 75.2861 69.3322 76.9062 70.9041 78.5448C71.3394 78.9996 71.39 79.8248 71.5176 80.2107L71.5303 80.2141Z" fill="#88413E"/>
<path d="M24.9171 5.4467C25.6641 6.30969 26.751 7.02024 27.0036 7.95364C27.3517 9.29138 26.2724 10.1249 24.9606 10.3551C23.0775 10.6892 21.1928 11.131 19.3021 11.1384C18.4586 11.1424 17.2289 10.4071 16.8174 9.66105C16.1278 8.38061 17.0779 7.26897 18.2899 6.90386C20.3268 6.29988 22.4516 5.97645 24.9297 5.4501L24.9171 5.4467Z" fill="#88413E"/>
<path d="M43.798 9.4237C43.4142 10.9576 42.4717 11.7872 41.1634 11.3961C39.0125 10.7521 36.903 9.9028 34.8882 8.90302C34.3481 8.63658 33.8986 7.47456 33.995 6.81052C34.088 6.15911 34.8293 5.37028 35.486 5.09986C37.3759 4.33474 42.4671 6.42936 43.4127 8.22479C43.629 8.63445 43.6949 9.09849 43.798 9.4237Z" fill="#88413E"/>
<path d="M81.1028 90.1782C80.2898 89.8657 78.7846 89.4488 77.4366 88.7495C76.2686 88.1389 75.6745 86.857 76.5003 85.7527C77.0041 85.0896 78.2719 84.6177 79.1492 84.6904C80.6621 84.8253 82.1554 85.3877 83.6116 85.8861C84.9571 86.3413 85.9654 87.1931 85.59 88.7969C85.1977 90.4638 83.8944 90.561 82.494 90.3616C82.259 90.3257 82.0207 90.3024 81.0994 90.1908L81.1028 90.1782Z" fill="#88413E"/>
</g>
<defs>
<clipPath id="clip0_812_408">
<rect width="140" height="71" fill="white" transform="translate(18.8762) rotate(15)"/>
</clipPath>
</defs>
</svg>
